:FULLY-SPECIFIED
:FORCE-ALL-JOINTS-BE-3DOF
:DEGREES
95
root 0.607479 17.8456 14.1383 2.65794 5.89009 4.39835
lfemur 8.42786 -0.744755 -26.2931
ltibia 28.7877 0 0
lfoot -2.27025 -6.4442 0
ltoes -30.811 0 0
rfemur -41.4003 -8.33353 17.9409
rtibia 99.4352 0 0
rfoot 11.0758 -7.02525 0
rtoes 11.3949 0 0
lowerback 17.1284 -3.61089 -5.72293
upperback 1.11921 -6.01879 -1.89457
thorax -7.98348 -2.72567 2.58353
lowerneck -5.70988 0.886743 -1.69294
upperneck -8.04864 1.33214 1.63508
head -1.56462 0.687215 0.794727
lclavicle -1.57745e-15 2.25588e-14 0
lhumerus -12.0773 -14.7666 85.4111
lradius 115.323 0 0
lwrist 29.3708 0 0
lhand -38.3175 6.75397 0
lfingers 7.12502 0 0
lthumb -11.3455 36.4271 0
rclavicle -1.57745e-15 2.25588e-14 0
rhumerus -58.685 4.26689 -83.0346
rradius 79.7543 0 0
rwrist -2.99132 0 0
rhand -44.2612 35.3672 0
rfingers 7.12502 0 0
rthumb -17.0726 6.09741 0
96
root 0.612528 17.8308 14.6859 2.57173 5.47125 4.19582
lfemur 8.08107 -0.28464 -25.8134
ltibia 31.1914 0 0
lfoot -1.34504 -6.31959 0
ltoes -29.9741 0 0
rfemur -40.6425 -7.88353 18.3128
rtibia 97.4153 0 0
rfoot 10.3103 -7.02373 0
rtoes 11.2301 0 0
lowerback 17.1597 -3.54409 -5.42754
upperback 1.13895 -5.863 -1.77329
thorax -7.99456 -2.65905 2.51186
lowerneck -5.7425 0.959577 -1.62943
upperneck -8.06781 1.41572 1.4337
head -1.56157 0.729553 0.722178
lclavicle -2.26037e-15 2.20587e-14 0
lhumerus -13.2491 -14.8831 85.7104
lradius 114.988 0 0
lwrist 29.327 0 0
lhand -38.3032 6.81381 0
lfingers 7.12502 0 0
lthumb -11.3317 36.4877 0
rclavicle -2.26037e-15 2.20587e-14 0
rhumerus -57.9207 4.55345 -83.1093
rradius 80.1761 0 0
rwrist -2.99545 0 0
rhand -44.2498 35.4721 0
rfingers 7.12502 0 0
rthumb -17.0616 6.20139 0
97
root 0.617577 17.8159 15.2336 2.48551 5.05241 3.99329
lfemur 7.73429 0.175475 -25.3338
ltibia 33.595 0 0
lfoot -0.419825 -6.19497 0
ltoes -29.1373 0 0
rfemur -39.8848 -7.43353 18.6846
rtibia 95.3955 0 0
rfoot 9.54482 -7.0222 0
rtoes 11.0652 0 0
lowerback 17.1909 -3.4773 -5.13216
upperback 1.15869 -5.70721 -1.652
thorax -8.00563 -2.59242 2.4402
lowerneck -5.77513 1.03241 -1.56593
upperneck -8.08698 1.49931 1.23233
head -1.55852 0.771891 0.649628
lclavicle -2.9433e-15 2.15585e-14 0
lhumerus -14.4209 -14.9997 86.0098
lradius 114.654 0 0
lwrist 29.2831 0 0
lhand -38.289 6.87365 0
lfingers 7.12502 0 0
lthumb -11.318 36.5482 0
rclavicle -2.9433e-15 2.15585e-14 0
rhumerus -57.1564 4.84002 -83.1841
rradius 80.5978 0 0
rwrist -2.99958 0 0
rhand -44.2384 35.5771 0
rfingers 7.12502 0 0
rthumb -17.0507 6.30537 0
98
root 0.622626 17.8011 15.7813 2.39929 4.63357 3.79075
lfemur 7.3875 0.635591 -24.8541
ltibia 35.9987 0 0
lfoot 0.505386 -6.07035 0
ltoes -28.3004 0 0
rfemur -39.1271 -6.98353 19.0565
rtibia 93.3757 0 0
rfoot 8.77933 -7.02067 0
rtoes 10.9004 0 0
lowerback 17.2221 -3.4105 -4.83677
upperback 1.17843 -5.55142 -1.53071
thorax -8.0167 -2.5258 2.36853
lowerneck -5.80775 1.10525 -1.50242
upperneck -8.10615 1.58289 1.03096
head -1.55547 0.814228 0.577079
lclavicle -3.62622e-15 2.10583e-14 0
lhumerus -15.5927 -15.1162 86.3091
lradius 114.32 0 0
lwrist 29.2392 0 0
lhand -38.2748 6.93349 0
lfingers 7.12502 0 0
lthumb -11.3043 36.6088 0
rclavicle -3.62622e-15 2.10583e-14 0
rhumerus -56.3922 5.12659 -83.2589
rradius 81.0196 0 0
rwrist -3.0037 0 0
rhand -44.227 35.682 0
rfingers 7.12502 0 0
rthumb -17.0397 6.40935 0
99
root 0.627675 17.7862 16.3289 2.31308 4.21473 3.58822
lfemur 7.04071 1.09571 -24.3744
ltibia 38.4023 0 0
lfoot 1.4306 -5.94573 0
ltoes -27.4636 0 0
rfemur -38.3694 -6.53353 19.4284
rtibia 91.3559 0 0
rfoot 8.01383 -7.01915 0
rtoes 10.7355 0 0
lowerback 17.2533 -3.3437 -4.54139
upperback 1.19817 -5.39563 -1.40942
thorax -8.02778 -2.45917 2.29686
lowerneck -5.84038 1.17808 -1.43891
upperneck -8.12532 1.66648 0.829584
head -1.55242 0.856566 0.504529
lclavicle -4.30914e-15 2.05582e-14 0
lhumerus -16.7645 -15.2327 86.6085
lradius 113.986 0 0
lwrist 29.1953 0 0
lhand -38.2605 6.99333 0
lfingers 7.12502 0 0
lthumb -11.2905 36.6694 0
rclavicle -4.30914e-15 2.05582e-14 0
rhumerus -55.6279 5.41316 -83.3336
rradius 81.4414 0 0
rwrist -3.00783 0 0
rhand -44.2156 35.7869 0
rfingers 7.12502 0 0
rthumb -17.0287 6.51333 0
100
root 0.632724 17.7713 16.8766 2.22686 3.79589 3.38569
lfemur 6.69392 1.55582 -23.8947
ltibia 40.806 0 0
lfoot 2.35581 -5.82112 0
ltoes -26.6268 0 0
rfemur -37.6116 -6.08353 19.8003
rtibia 89.336 0 0
rfoot 7.24834 -7.01762 0
rtoes 10.5707 0 0
lowerback 17.2846 -3.2769 -4.246
upperback 1.21791 -5.23985 -1.28814
thorax -8.03885 -2.39254 2.22519
lowerneck -5.873 1.25092 -1.3754
upperneck -8.14448 1.75006 0.628211
head -1.54937 0.898904 0.43198
lclavicle -4.99206e-15 2.0058e-14 0
lhumerus -17.9363 -15.3492 86.9079
lradius 113.651 0 0
lwrist 29.1515 0 0
lhand -38.2463 7.05318 0
lfingers 7.12502 0 0
lthumb -11.2768 36.73 0
rclavicle -4.99206e-15 2.0058e-14 0
rhumerus -54.8636 5.69972 -83.4084
rradius 81.8632 0 0
rwrist -3.01196 0 0
rhand -44.2042 35.8918 0
rfingers 7.12502 0 0
rthumb -17.0177 6.61731 0
101
root 0.637773 17.7565 17.4243 2.14065 3.37705 3.18316
lfemur 6.34714 2.01594 -23.415
ltibia 43.2096 0 0
lfoot 3.28102 -5.6965 0
ltoes -25.7899 0 0
rfemur -36.8539 -5.63353 20.1722
rtibia 87.3162 0 0
rfoot 6.48285 -7.01609 0
rtoes 10.4058 0 0
lowerback 17.3158 -3.2101 -3.95062
upperback 1.23765 -5.08406 -1.16685
thorax -8.04992 -2.32592 2.15352
lowerneck -5.90563 1.32375 -1.3119
upperneck -8.16365 1.83365 0.426837
head -1.54632 0.941242 0.35943
lclavicle -5.67498e-15 1.95578e-14 0
lhumerus -19.1081 -15.4657 87.2072
lradius 113.317 0 0
lwrist 29.1076 0 0
lhand -38.2321 7.11302 0
lfingers 7.12502 0 0
lthumb -11.2631 36.7906 0
rclavicle -5.67498e-15 1.95578e-14 0
rhumerus -54.0993 5.98629 -83.4832
rradius 82.2849 0 0
rwrist -3.01609 0 0
rhand -44.1928 35.9967 0
rfingers 7.12502 0 0
rthumb -17.0067 6.72129 0
102
root 0.642822 17.7416 17.9719 2.05443 2.95821 2.98063
lfemur 6.00035 2.47605 -22.9354
ltibia 45.6132 0 0
lfoot 4.20623 -5.57188 0
ltoes -24.9531 0 0
rfemur -36.0962 -5.18353 20.544
rtibia 85.2964 0 0
rfoot 5.71735 -7.01457 0
rtoes 10.2409 0 0
lowerback 17.347 -3.14331 -3.65523
upperback 1.25739 -4.92827 -1.04556
thorax -8.061 -2.25929 2.08186
lowerneck -5.93825 1.39658 -1.24839
upperneck -8.18282 1.91724 0.225464
head -1.54327 0.98358 0.28688
lclavicle -6.3579e-15 1.90577e-14 0
lhumerus -20.2799 -15.5823 87.5066
lradius 112.983 0 0
lwrist 29.0637 0 0
lhand -38.2178 7.17286 0
lfingers 7.12502 0 0
lthumb -11.2493 36.8511 0
rclavicle -6.3579e-15 1.90577e-14 0
rhumerus -53.335 6.27286 -83.5579
rradius 82.7067 0 0
rwrist -3.02022 0 0
rhand -44.1813 36.1017 0
rfingers 7.12502 0 0
rthumb -16.9958 6.82527 0
103
root 0.647871 17.7267 18.5196 1.96821 2.53937 2.7781
lfemur 5.65356 2.93617 -22.4557
ltibia 48.0169 0 0
lfoot 5.13144 -5.44726 0
ltoes -24.1162 0 0
rfemur -35.3385 -4.73353 20.9159
rtibia 83.2765 0 0
rfoot 4.95186 -7.01304 0
rtoes 10.0761 0 0
lowerback 17.3782 -3.07651 -3.35985
upperback 1.27713 -4.77248 -0.924273
thorax -8.07207 -2.19267 2.01019
lowerneck -5.97088 1.46942 -1.18488
upperneck -8.20199 2.00082 0.024091
head -1.54022 1.02592 0.214331
lclavicle -7.04083e-15 1.85575e-14 0
lhumerus -21.4517 -15.6988 87.806
lradius 112.648 0 0
lwrist 29.0199 0 0
lhand -38.2036 7.2327 0
lfingers 7.12502 0 0
lthumb -11.2356 36.9117 0
rclavicle -7.04083e-15 1.85575e-14 0
rhumerus -52.5707 6.55942 -83.6327
rradius 83.1285 0 0
rwrist -3.02435 0 0
rhand -44.1699 36.2066 0
rfingers 7.12502 0 0
rthumb -16.9848 6.92925 0
104
root 0.65292 17.7119 19.0672 1.882 2.12053 2.57556
lfemur 5.30677 3.39628 -21.976
ltibia 50.4205 0 0
lfoot 6.05666 -5.32265 0
ltoes -23.2794 0 0
rfemur -34.5807 -4.28353 21.2878
rtibia 81.2567 0 0
rfoot 4.18636 -7.01151 0
rtoes 9.91122 0 0
lowerback 17.4095 -3.00971 -3.06446
upperback 1.29687 -4.61669 -0.802986
thorax -8.08315 -2.12604 1.93852
lowerneck -6.0035 1.54225 -1.12137
upperneck -8.22116 2.08441 -0.177282
head -1.53717 1.06826 0.141781
lclavicle -7.72375e-15 1.80573e-14 0
lhumerus -22.6235 -15.8153 88.1053
lradius 112.314 0 0
lwrist 28.976 0 0
lhand -38.1893 7.29254 0
lfingers 7.12502 0 0
lthumb -11.2219 36.9723 0
rclavicle -7.72375e-15 1.80573e-14 0
rhumerus -51.8064 6.84599 -83.7074
rradius 83.5503 0 0
rwrist -3.02848 0 0
rhand -44.1585 36.3115 0
rfingers 7.12502 0 0
rthumb -16.9738 7.03323 0
105
root 0.657969 17.697 19.6149 1.79578 1.70169 2.37303
lfemur 4.95998 3.8564 -21.4963
ltibia 52.8242 0 0
lfoot 6.98187 -5.19803 0
ltoes -22.4425 0 0
rfemur -33.823 -3.83353 21.6597
rtibia 79.2369 0 0
rfoot 3.42087 -7.00999 0
rtoes 9.74636 0 0
lowerback 17.4407 -2.94291 -2.76908
upperback 1.31661 -4.4609 -0.681698
thorax -8.09422 -2.05941 1.86685
lowerneck -6.03613 1.61509 -1.05787
upperneck -8.24033 2.16799 -0.378655
head -1.53412 1.11059 0.0692316
lclavicle -8.40667e-15 1.75572e-14 0
lhumerus -23.7953 -15.9318 88.4047
lradius 111.98 0 0
lwrist 28.9321 0 0
lhand -38.1751 7.35238 0
lfingers 7.12502 0 0
lthumb -11.2081 37.0329 0
rclavicle -8.40667e-15 1.75572e-14 0
rhumerus -51.0421 7.13256 -83.7822
rradius 83.9721 0 0
rwrist -3.03261 0 0
rhand -44.1471 36.4164 0
rfingers 7.12502 0 0
rthumb -16.9628 7.13721 0
106
root 0.663018 17.6822 20.1626 1.70956 1.28285 2.1705
lfemur 4.6132 4.31651 -21.0166
ltibia 55.2278 0 0
lfoot 7.90708 -5.07341 0
ltoes -21.6057 0 0
rfemur -33.0653 -3.38353 22.0316
rtibia 77.2171 0 0
rfoot 2.65538 -7.00846 0
rtoes 9.58151 0 0
lowerback 17.4719 -2.87611 -2.47369
upperback 1.33635 -4.30511 -0.560411
thorax -8.10529 -1.99279 1.79518
lowerneck -6.06875 1.68792 -0.99436
upperneck -8.2595 2.25158 -0.580029
head -1.53107 1.15293 -0.00331797
lclavicle -9.08959e-15 1.7057e-14 0
lhumerus -24.9671 -16.0483 88.704
lradius 111.646 0 0
lwrist 28.8882 0 0
lhand -38.1609 7.41222 0
lfingers 7.12502 0 0
lthumb -11.1944 37.0935 0
rclavicle -9.08959e-15 1.7057e-14 0
rhumerus -50.2779 7.41913 -83.857
rradius 84.3938 0 0
rwrist -3.03673 0 0
rhand -44.1357 36.5213 0
rfingers 7.12502 0 0
rthumb -16.9518 7.24119 0
107
root 0.668067 17.6673 20.7102 1.62335 0.86401 1.96797
lfemur 4.26641 4.77663 -20.537
ltibia 57.6314 0 0
lfoot 8.83229 -4.94879 0
ltoes -20.7689 0 0
rfemur -32.3076 -2.93353 22.4034
rtibia 75.1972 0 0
rfoot 1.88988 -7.00693 0
rtoes 9.41665 0 0
lowerback 17.5031 -2.80932 -2.17831
upperback 1.35609 -4.14932 -0.439124
thorax -8.11637 -1.92616 1.72352
lowerneck -6.10138 1.76076 -0.930852
upperneck -8.27867 2.33517 -0.781402
head -1.52802 1.19527 -0.0758675
lclavicle -9.77251e-15 1.65568e-14 0
lhumerus -26.1389 -16.1649 89.0034
lradius 111.311 0 0
lwrist 28.8444 0 0
lhand -38.1466 7.47206 0
lfingers 7.12502 0 0
lthumb -11.1807 37.154 0
rclavicle -9.77251e-15 1.65568e-14 0
rhumerus -49.5136 7.70569 -83.9317
rradius 84.8156 0 0
rwrist -3.04086 0 0
rhand -44.1243 36.6263 0
rfingers 7.12502 0 0
rthumb -16.9409 7.34517 0
